<svg width="32" height="32" viewBox="0 0 32 32" fill="none" xmlns="http://www.w3.org/2000/svg">
<path d="M0 10C0 4.47715 4.47715 0 10 0H22C27.5228 0 32 4.47715 32 10V22C32 27.5228 27.5228 32 22 32H10C4.47715 32 0 27.5228 0 22V10Z" fill="#008236"/>
<path d="M9.33301 18.6663V10.6663C9.33301 10.3127 9.47348 9.97358 9.72353 9.72353C9.97358 9.47348 10.3127 9.33301 10.6663 9.33301H17.9997" stroke="white" stroke-width="1.33333" stroke-linecap="round" stroke-linejoin="round"/>
<path d="M22.6667 20H15.3333C14.9797 20 14.6406 20.1405 14.3905 20.3905C14.1405 20.6406 14 20.9797 14 21.3333M14 21.3333C14 21.687 14.1405 22.0261 14.3905 22.2761C14.6406 22.5262 14.9797 22.6667 15.3333 22.6667H22.3333C22.4217 22.6667 22.5065 22.6315 22.569 22.569C22.6315 22.5065 22.6667 22.4217 22.6667 22.3333V12.3333C22.6667 12.2449 22.6315 12.1601 22.569 12.0976C22.5065 12.0351 22.4217 12 22.3333 12H15.3333C14.9797 12 14.6406 12.1405 14.3905 12.3905C14.1405 12.6406 14 12.9797 14 13.3333V21.3333Z" stroke="white" stroke-width="1.33333" stroke-linecap="round" stroke-linejoin="round"/>
<path d="M11.333 17.333H10.6663C10.3127 17.333 9.97358 17.4735 9.72353 17.7235C9.47348 17.9736 9.33301 18.3127 9.33301 18.6663C9.33301 19.02 9.47348 19.3591 9.72353 19.6092C9.97358 19.8592 10.3127 19.9997 10.6663 19.9997H11.333" stroke="white" stroke-width="1.33333" stroke-linecap="round" stroke-linejoin="round"/>
</svg>
