<svg width="40" height="40" viewBox="0 0 40 40" fill="none" xmlns="http://www.w3.org/2000/svg">
<path d="M0 14C0 6.26801 6.26801 0 14 0H26C33.732 0 40 6.26801 40 14V26C40 33.732 33.732 40 26 40H14C6.26801 40 0 33.732 0 26V14Z" fill="#008236"/>
<g clip-path="url(#clip0_2231_22406)">
<path d="M11.667 23.3337V13.3337C11.667 12.8916 11.8426 12.4677 12.1551 12.1551C12.4677 11.8426 12.8916 11.667 13.3337 11.667H22.5003" stroke="white" stroke-width="1.66667" stroke-linecap="round" stroke-linejoin="round"/>
<path d="M28.3333 25H19.1667C18.7246 25 18.3007 25.1756 17.9882 25.4882C17.6756 25.8007 17.5 26.2246 17.5 26.6667M17.5 26.6667C17.5 27.1087 17.6756 27.5326 17.9882 27.8452C18.3007 28.1577 18.7246 28.3333 19.1667 28.3333H27.9167C28.0272 28.3333 28.1332 28.2894 28.2113 28.2113C28.2894 28.1332 28.3333 28.0272 28.3333 27.9167V15.4167C28.3333 15.3062 28.2894 15.2002 28.2113 15.122C28.1332 15.0439 28.0272 15 27.9167 15H19.1667C18.7246 15 18.3007 15.1756 17.9882 15.4882C17.6756 15.8007 17.5 16.2246 17.5 16.6667V26.6667Z" stroke="white" stroke-width="1.66667" stroke-linecap="round" stroke-linejoin="round"/>
<path d="M14.167 21.667H13.3337C12.8916 21.667 12.4677 21.8426 12.1551 22.1551C11.8426 22.4677 11.667 22.8916 11.667 23.3337C11.667 23.7757 11.8426 24.1996 12.1551 24.5122C12.4677 24.8247 12.8916 25.0003 13.3337 25.0003H14.167" stroke="white" stroke-width="1.66667" stroke-linecap="round" stroke-linejoin="round"/>
</g>
<defs>
<clipPath id="clip0_2231_22406">
<rect width="20" height="20" fill="white" transform="translate(10 10)"/>
</clipPath>
</defs>
</svg>
