<svg width="32" height="32" viewBox="0 0 32 32" fill="none" xmlns="http://www.w3.org/2000/svg">
<path d="M0 10C0 4.47715 4.47715 0 10 0H22C27.5228 0 32 4.47715 32 10V22C32 27.5228 27.5228 32 22 32H10C4.47715 32 0 27.5228 0 22V10Z" fill="#FE9A00"/>
<path d="M10 16C10 17.1867 10.3519 18.3467 11.0112 19.3334C11.6705 20.3201 12.6075 21.0892 13.7039 21.5433C14.8003 21.9974 16.0067 22.1162 17.1705 21.8847C18.3344 21.6532 19.4035 21.0818 20.2426 20.2426C21.0818 19.4035 21.6532 18.3344 21.8847 17.1705C22.1162 16.0067 21.9974 14.8003 21.5433 13.7039C21.0892 12.6075 20.3201 11.6705 19.3334 11.0112C18.3467 10.3519 17.1867 10 16 10C14.3226 10.0063 12.7126 10.6608 11.5067 11.8267L10 13.3333" stroke="white" stroke-width="1.33333" stroke-linecap="round" stroke-linejoin="round"/>
<path d="M10 10V13.3333H13.3333" stroke="white" stroke-width="1.33333" stroke-linecap="round" stroke-linejoin="round"/>
</svg>
