<svg width="32" height="32" viewBox="0 0 32 32" fill="none" xmlns="http://www.w3.org/2000/svg">
<path d="M0 10C0 4.47715 4.47715 0 10 0H22C27.5228 0 32 4.47715 32 10V22C32 27.5228 27.5228 32 22 32H10C4.47715 32 0 27.5228 0 22V10Z" fill="#343A0C"/>
<path d="M18.6663 22V20.6667C18.6663 19.9594 18.3854 19.2811 17.8853 18.781C17.3852 18.281 16.7069 18 15.9997 18H11.9997C11.2924 18 10.6142 18.281 10.1141 18.781C9.61396 19.2811 9.33301 19.9594 9.33301 20.6667V22" stroke="white" stroke-width="1.33333" stroke-linecap="round" stroke-linejoin="round"/>
<path d="M13.9997 15.3333C15.4724 15.3333 16.6663 14.1394 16.6663 12.6667C16.6663 11.1939 15.4724 10 13.9997 10C12.5269 10 11.333 11.1939 11.333 12.6667C11.333 14.1394 12.5269 15.3333 13.9997 15.3333Z" stroke="white" stroke-width="1.33333" stroke-linecap="round" stroke-linejoin="round"/>
<path d="M22.667 22.0002V20.6669C22.6666 20.0761 22.4699 19.5021 22.1079 19.0351C21.7459 18.5682 21.2391 18.2346 20.667 18.0869" stroke="white" stroke-width="1.33333" stroke-linecap="round" stroke-linejoin="round"/>
<path d="M18.667 10.0869C19.2406 10.2338 19.749 10.5674 20.1121 11.0351C20.4752 11.5029 20.6722 12.0781 20.6722 12.6702C20.6722 13.2624 20.4752 13.8376 20.1121 14.3054C19.749 14.7731 19.2406 15.1067 18.667 15.2536" stroke="white" stroke-width="1.33333" stroke-linecap="round" stroke-linejoin="round"/>
</svg>
