<svg width="40" height="40" viewBox="0 0 40 40" fill="none" xmlns="http://www.w3.org/2000/svg">
<path d="M0 14C0 6.26801 6.26801 0 14 0H26C33.732 0 40 6.26801 40 14V26C40 33.732 33.732 40 26 40H14C6.26801 40 0 33.732 0 26V14Z" fill="#C10007"/>
<path d="M20.0003 28.3337C24.6027 28.3337 28.3337 24.6027 28.3337 20.0003C28.3337 15.398 24.6027 11.667 20.0003 11.667C15.398 11.667 11.667 15.398 11.667 20.0003C11.667 24.6027 15.398 28.3337 20.0003 28.3337Z" stroke="white" stroke-width="1.66667" stroke-linecap="round" stroke-linejoin="round"/>
<path d="M20 16.667V20.0003" stroke="white" stroke-width="1.66667" stroke-linecap="round" stroke-linejoin="round"/>
<path d="M20 23.333H20.0083" stroke="white" stroke-width="1.66667" stroke-linecap="round" stroke-linejoin="round"/>
</svg>
