<svg width="40" height="40" viewBox="0 0 40 40" fill="none" xmlns="http://www.w3.org/2000/svg">
<path d="M0 14C0 6.26801 6.26801 0 14 0H26C33.732 0 40 6.26801 40 14V26C40 33.732 33.732 40 26 40H14C6.26801 40 0 33.732 0 26V14Z" fill="#F1580A"/>
<path d="M22.4997 11.666H14.9997C14.5576 11.666 14.1337 11.8416 13.8212 12.1542C13.5086 12.4667 13.333 12.8907 13.333 13.3327V26.666C13.333 27.108 13.5086 27.532 13.8212 27.8445C14.1337 28.1571 14.5576 28.3327 14.9997 28.3327H24.9997C25.4417 28.3327 25.8656 28.1571 26.1782 27.8445C26.4907 27.532 26.6663 27.108 26.6663 26.666V15.8327L22.4997 11.666Z" stroke="white" stroke-width="1.66667" stroke-linecap="round" stroke-linejoin="round"/>
<path d="M21.667 11.666V14.9993C21.667 15.4414 21.8426 15.8653 22.1551 16.1779C22.4677 16.4904 22.8916 16.666 23.3337 16.666H26.667" stroke="white" stroke-width="1.66667" stroke-linecap="round" stroke-linejoin="round"/>
<path d="M18.3337 17.5H16.667" stroke="white" stroke-width="1.66667" stroke-linecap="round" stroke-linejoin="round"/>
<path d="M23.3337 20.834H16.667" stroke="white" stroke-width="1.66667" stroke-linecap="round" stroke-linejoin="round"/>
<path d="M23.3337 24.166H16.667" stroke="white" stroke-width="1.66667" stroke-linecap="round" stroke-linejoin="round"/>
</svg>
