<svg width="40" height="40" viewBox="0 0 40 40" fill="none" xmlns="http://www.w3.org/2000/svg">
<path d="M0 14C0 6.26801 6.26801 0 14 0H26C33.732 0 40 6.26801 40 14V26C40 33.732 33.732 40 26 40H14C6.26801 40 0 33.732 0 26V14Z" fill="#343A0C"/>
<path d="M16.667 11.667V15.0003" stroke="white" stroke-width="1.66667" stroke-linecap="round" stroke-linejoin="round"/>
<path d="M23.333 11.667V15.0003" stroke="white" stroke-width="1.66667" stroke-linecap="round" stroke-linejoin="round"/>
<path d="M25.8333 13.333H14.1667C13.2462 13.333 12.5 14.0792 12.5 14.9997V26.6663C12.5 27.5868 13.2462 28.333 14.1667 28.333H25.8333C26.7538 28.333 27.5 27.5868 27.5 26.6663V14.9997C27.5 14.0792 26.7538 13.333 25.8333 13.333Z" stroke="white" stroke-width="1.66667" stroke-linecap="round" stroke-linejoin="round"/>
<path d="M12.5 18.333H27.5" stroke="white" stroke-width="1.66667" stroke-linecap="round" stroke-linejoin="round"/>
</svg>
