<svg width="40" height="40" viewBox="0 0 40 40" fill="none" xmlns="http://www.w3.org/2000/svg">
<path d="M0 14C0 6.26801 6.26801 0 14 0H26C33.732 0 40 6.26801 40 14V26C40 33.732 33.732 40 26 40H14C6.26801 40 0 33.732 0 26V14Z" fill="#F1580A"/>
<g clip-path="url(#clip0_2231_25825)">
<path d="M20.0003 28.3337C24.6027 28.3337 28.3337 24.6027 28.3337 20.0003C28.3337 15.398 24.6027 11.667 20.0003 11.667C15.398 11.667 11.667 15.398 11.667 20.0003C11.667 24.6027 15.398 28.3337 20.0003 28.3337Z" stroke="white" stroke-width="1.66667" stroke-linecap="round" stroke-linejoin="round"/>
<path d="M20 15V20L23.3333 21.6667" stroke="white" stroke-width="1.66667" stroke-linecap="round" stroke-linejoin="round"/>
</g>
<defs>
<clipPath id="clip0_2231_25825">
<rect width="20" height="20" fill="white" transform="translate(10 10)"/>
</clipPath>
</defs>
</svg>
