<svg width="36" height="36" viewBox="0 0 36 36" fill="none" xmlns="http://www.w3.org/2000/svg">
<path d="M0 14C0 6.26801 6.26801 0 14 0H22C29.732 0 36 6.26801 36 14V22C36 29.732 29.732 36 22 36H14C6.26801 36 0 29.732 0 22V14Z" fill="#343A0C"/>
<path d="M18 14.667V24.0003" stroke="white" stroke-width="1.33333" stroke-linecap="round" stroke-linejoin="round"/>
<path d="M11.9997 22C11.8229 22 11.6533 21.9298 11.5283 21.8047C11.4032 21.6797 11.333 21.5101 11.333 21.3333V12.6667C11.333 12.4899 11.4032 12.3203 11.5283 12.1953C11.6533 12.0702 11.8229 12 11.9997 12H15.333C16.0403 12 16.7185 12.281 17.2186 12.781C17.7187 13.2811 17.9997 13.9594 17.9997 14.6667C17.9997 13.9594 18.2806 13.2811 18.7807 12.781C19.2808 12.281 19.9591 12 20.6663 12H23.9997C24.1765 12 24.3461 12.0702 24.4711 12.1953C24.5961 12.3203 24.6663 12.4899 24.6663 12.6667V21.3333C24.6663 21.5101 24.5961 21.6797 24.4711 21.8047C24.3461 21.9298 24.1765 22 23.9997 22H19.9997C19.4692 22 18.9605 22.2107 18.5855 22.5858C18.2104 22.9609 17.9997 23.4696 17.9997 24C17.9997 23.4696 17.789 22.9609 17.4139 22.5858C17.0388 22.2107 16.5301 22 15.9997 22H11.9997Z" stroke="white" stroke-width="1.33333" stroke-linecap="round" stroke-linejoin="round"/>
</svg>
