<svg width="16" height="16" viewBox="0 0 16 16" fill="none" xmlns="http://www.w3.org/2000/svg">
<path d="M1.33398 10.6663V2.66634C1.33398 2.31272 1.47446 1.97358 1.72451 1.72353C1.97456 1.47348 2.3137 1.33301 2.66732 1.33301H10.0007" stroke="#FAF5EC" stroke-width="1.66667" stroke-linecap="round" stroke-linejoin="round"/>
<path d="M14.6667 12H7.33333C6.97971 12 6.64057 12.1405 6.39052 12.3905C6.14048 12.6406 6 12.9797 6 13.3333M6 13.3333C6 13.687 6.14048 14.0261 6.39052 14.2761C6.64057 14.5262 6.97971 14.6667 7.33333 14.6667H14.3333C14.4217 14.6667 14.5065 14.6315 14.569 14.569C14.6315 14.5065 14.6667 14.4217 14.6667 14.3333V4.33333C14.6667 4.24493 14.6315 4.16014 14.569 4.09763C14.5065 4.03512 14.4217 4 14.3333 4H7.33333C6.97971 4 6.64057 4.14048 6.39052 4.39052C6.14048 4.64057 6 4.97971 6 5.33333V13.3333Z" stroke="#FAF5EC" stroke-width="1.66667" stroke-linecap="round" stroke-linejoin="round"/>
<path d="M3.33398 9.33301H2.66732C2.3137 9.33301 1.97456 9.47348 1.72451 9.72353C1.47446 9.97358 1.33398 10.3127 1.33398 10.6663C1.33398 11.02 1.47446 11.3591 1.72451 11.6091C1.97456 11.8592 2.3137 11.9997 2.66732 11.9997H3.33398" stroke="#FAF5EC" stroke-width="1.66667" stroke-linecap="round" stroke-linejoin="round"/>
</svg>
