<svg width="15" height="15" viewBox="0 0 15 15" fill="none" xmlns="http://www.w3.org/2000/svg">
<path d="M7.89132 1.22367C7.64133 0.973609 7.30224 0.833083 6.94865 0.833008H2.16732C1.8137 0.833008 1.47456 0.973484 1.22451 1.22353C0.97446 1.47358 0.833984 1.81272 0.833984 2.16634V6.94767C0.83406 7.30127 0.974585 7.64035 1.22465 7.89034L7.02732 13.693C7.33033 13.9941 7.74015 14.1631 8.16732 14.1631C8.59449 14.1631 9.00431 13.9941 9.30732 13.693L13.694 9.30634C13.9951 9.00333 14.1641 8.59351 14.1641 8.16634C14.1641 7.73917 13.9951 7.32935 13.694 7.02634L7.89132 1.22367Z" stroke="#FAF5EC" stroke-width="1.66667" stroke-linecap="round" stroke-linejoin="round"/>
</svg>
