<svg width="24" height="25" viewBox="0 0 24 25" fill="none" xmlns="http://www.w3.org/2000/svg">
<path fill-rule="evenodd" clip-rule="evenodd" d="M14.9016 9.22288C14.9149 9.23388 14.9281 9.24479 14.9412 9.2556C14.9689 9.27829 14.996 9.30054 15.0226 9.32225C14.9834 9.29021 14.9429 9.25703 14.9016 9.22288ZM20.9151 14.1215L20.9182 14.1241C20.9172 14.1233 20.9162 14.1224 20.9151 14.1215ZM11.4134 3.11274V3.1098C11.4123 3.01695 11.4112 2.92188 11.4102 2.8252C11.4112 2.9229 11.4123 3.01896 11.4134 3.11274Z" fill="#FDF8F3"/>
<path fill-rule="evenodd" clip-rule="evenodd" d="M11.6604 0.00330063C12.5616 -0.05058 12.5368 0.565613 12.5097 1.2405C12.5066 1.31488 12.5036 1.38999 12.5018 1.46499C13.3664 1.10553 14.7434 0.95027 15.6336 1.27714C15.6655 1.28883 15.6971 1.30054 15.7284 1.31225C15.7778 1.3308 15.8265 1.34936 15.8744 1.36782C16.0013 1.41664 16.1231 1.46501 16.2412 1.51189C17.2506 1.91258 17.986 2.20449 19.1966 1.73709L19.1983 1.78839C19.2199 2.42432 19.3063 4.96168 19.0912 5.29393C18.9337 5.53706 18.6421 5.67395 18.3829 5.76465C17.4079 6.10582 16.6176 5.82669 15.8004 5.53804C15.3356 5.37392 14.8622 5.20673 14.3413 5.14879C13.7747 5.08579 13.2126 5.22319 12.6631 5.35753L12.5201 5.39239C12.5092 5.70731 12.5151 6.06714 12.521 6.42415V6.42781V6.43307C12.525 6.6814 12.529 6.92821 12.5274 7.15747C12.9605 7.47738 13.5609 7.99369 14.1014 8.45852L14.1057 8.46229C14.2562 8.59171 14.4022 8.71715 14.5387 8.83339C14.5828 8.87099 14.6259 8.90761 14.6679 8.94309C14.7201 8.98722 14.7706 9.02957 14.819 9.06981L19.8767 13.2961C19.9355 13.3454 19.994 13.3938 20.0527 13.4425L20.061 13.4494C20.0623 13.4505 20.0636 13.4516 20.0649 13.4527C20.2006 13.565 20.3392 13.6797 20.4848 13.8083L20.5088 13.8294L20.5266 13.8447C20.5579 13.8714 20.5921 13.8999 20.6287 13.9299L20.6969 13.9856L20.75 14.0287C21.4328 14.5828 22.5838 15.5171 21.265 15.9745C21.0758 16.0401 20.1975 16.0182 19.6818 16.0053L19.6704 16.005C19.5512 16.0021 19.4524 15.9996 19.3873 15.999L19.3849 24.4811H16.7427H14.767H8.94857H7.02898H4.41692L4.41674 23.8649L4.42729 16.0155C4.37561 16.0142 4.32394 16.0132 4.27227 16.0126L4.23425 16.0122C4.15652 16.0114 4.07879 16.0112 4.00106 16.0114C3.86935 16.0117 3.73764 16.0132 3.60602 16.0146C3.47831 16.016 3.35032 16.0174 3.22243 16.0178C3.06422 16.0183 2.90592 16.0173 2.74807 16.0128C2.32875 16.0008 1.84172 15.8235 1.90855 15.2962C1.93549 15.0833 1.99328 14.957 2.14103 14.809C2.46391 14.4855 2.8219 14.1962 3.17714 13.9092C3.25185 13.8489 3.32754 13.7876 3.40173 13.7271C3.97323 13.2607 4.54206 12.7908 5.10824 12.3174L11.2305 7.23639C11.2089 6.43719 11.2143 5.6245 11.2199 4.81067V4.79636C11.2238 4.21406 11.2278 3.63123 11.2217 3.05239L11.2187 2.77296C11.21 2.02003 11.1996 1.12028 11.2541 0.412089C11.2684 0.224934 11.5112 0.0854596 11.6604 0.00330063ZM11.8858 16.4425C13.3896 16.4425 14.6086 15.2156 14.6086 13.7021C14.6086 12.1886 13.3896 10.9617 11.8858 10.9617C10.3821 10.9617 9.16306 12.1886 9.16306 13.7021C9.16306 15.2156 10.3821 16.4425 11.8858 16.4425Z" fill="#FAF5EC"/>
<path d="M2.37724 14.5966C5.45647 14.5647 8.65368 15.0854 11.0069 17.2364C11.3243 17.5266 11.649 17.8528 11.8875 18.2126C12.0839 17.9016 12.3463 17.6126 12.6111 17.3554C14.3758 15.6433 16.8403 14.882 19.2408 14.6525C20.0284 14.5773 20.88 14.5917 21.6726 14.607C21.7902 14.7759 22.0541 15.3849 22.1588 15.5959C22.5772 16.4391 22.9592 17.3197 23.3788 18.1613C22.0728 18.02 20.7555 18.0106 19.4476 18.1335C16.8995 18.3968 14.2851 19.4058 12.5361 21.3409C12.5209 21.3579 12.5243 21.3514 12.5267 21.3728C13.1719 20.7775 14.1359 20.2289 14.9352 19.88C17.1026 18.9333 19.5177 18.627 21.8673 18.7813C22.2786 18.8202 22.7236 18.8112 23.1196 18.9376C23.2249 18.9711 23.2685 19.1153 23.3096 19.2135C23.4679 19.592 23.6185 19.9748 23.7702 20.356C23.2779 20.2255 22.7811 20.1126 22.2807 20.0174C21.8952 19.9658 21.5246 19.9089 21.1351 19.8766C18.6885 19.6741 16.2337 19.909 13.9938 20.9702C13.6855 21.1183 13.3857 21.2833 13.0955 21.4641C11.7726 22.2794 12.1682 22.3771 10.8326 21.5669C8.18571 19.9609 4.83755 19.5643 1.80703 19.9469C1.17721 20.0264 0.614769 20.1887 0 20.3339C0.146759 20.0351 0.414249 19.2064 0.581692 18.9785C0.684769 18.8384 2.02239 18.7629 2.27044 18.7539C4.94074 18.6578 7.62933 19.1868 9.97247 20.4967C10.4213 20.7475 10.9228 21.0585 11.3101 21.3973C11.3566 21.4381 11.3278 21.4286 11.3851 21.4442C11.3769 21.3769 10.8052 20.8516 10.7242 20.7806C8.46133 18.7988 5.29939 17.9935 2.33807 18.0501C1.68755 18.0625 1.07818 18.1139 0.432022 18.1583C0.603806 17.7315 0.91302 17.1248 1.12123 16.6948L2.1144 14.6095C2.19748 14.6032 2.2931 14.6007 2.37724 14.5966Z" fill="#F1580A"/>
</svg>
