<svg width="40" height="40" viewBox="0 0 40 40" fill="none" xmlns="http://www.w3.org/2000/svg">
<path d="M0 14C0 6.26801 6.26801 0 14 0H26C33.732 0 40 6.26801 40 14V26C40 33.732 33.732 40 26 40H14C6.26801 40 0 33.732 0 26V14Z" fill="#FE9A00"/>
<path d="M20.0003 28.3327C24.6027 28.3327 28.3337 24.6017 28.3337 19.9993C28.3337 15.397 24.6027 11.666 20.0003 11.666C15.398 11.666 11.667 15.397 11.667 19.9993C11.667 24.6017 15.398 28.3327 20.0003 28.3327Z" stroke="white" stroke-width="1.66667" stroke-linecap="round" stroke-linejoin="round"/>
<path d="M20 15V20L23.3333 21.6667" stroke="white" stroke-width="1.66667" stroke-linecap="round" stroke-linejoin="round"/>
</svg>
