<svg width="28" height="36" viewBox="0 0 28 36" fill="none" xmlns="http://www.w3.org/2000/svg">
<path d="M0 4C0 1.79086 1.79086 0 4 0H24C26.2091 0 28 1.79086 28 4V32C28 34.2091 26.2091 36 24 36H4C1.79086 36 0 34.2091 0 32V4Z" fill="url(#paint0_linear_2231_22753)"/>
<g clip-path="url(#clip0_2231_22753)">
<path d="M14 15.083V23.2497" stroke="white" stroke-width="1.16667" stroke-linecap="round" stroke-linejoin="round"/>
<path d="M8.75033 21.5C8.59562 21.5 8.44724 21.4385 8.33785 21.3291C8.22845 21.2197 8.16699 21.0714 8.16699 20.9167V13.3333C8.16699 13.1786 8.22845 13.0303 8.33785 12.9209C8.44724 12.8115 8.59562 12.75 8.75033 12.75H11.667C12.2858 12.75 12.8793 12.9958 13.3169 13.4334C13.7545 13.871 14.0003 14.4645 14.0003 15.0833C14.0003 14.4645 14.2462 13.871 14.6837 13.4334C15.1213 12.9958 15.7148 12.75 16.3337 12.75H19.2503C19.405 12.75 19.5534 12.8115 19.6628 12.9209C19.7722 13.0303 19.8337 13.1786 19.8337 13.3333V20.9167C19.8337 21.0714 19.7722 21.2197 19.6628 21.3291C19.5534 21.4385 19.405 21.5 19.2503 21.5H15.7503C15.2862 21.5 14.8411 21.6844 14.5129 22.0126C14.1847 22.3408 14.0003 22.7859 14.0003 23.25C14.0003 22.7859 13.816 22.3408 13.4878 22.0126C13.1596 21.6844 12.7145 21.5 12.2503 21.5H8.75033Z" stroke="white" stroke-width="1.16667" stroke-linecap="round" stroke-linejoin="round"/>
</g>
<defs>
<linearGradient id="paint0_linear_2231_22753" x1="4.19709" y1="-5.5243e-09" x2="30.8749" y2="29.6333" gradientUnits="userSpaceOnUse">
<stop stop-color="#3B82F6"/>
<stop offset="1" stop-color="#1D4ED8"/>
</linearGradient>
<clipPath id="clip0_2231_22753">
<rect width="14" height="14" fill="white" transform="translate(7 11)"/>
</clipPath>
</defs>
</svg>
