<svg width="28" height="28" viewBox="0 0 28 28" fill="none" xmlns="http://www.w3.org/2000/svg">
<path d="M14 8H9.33333C8.97971 8 8.64057 8.14048 8.39052 8.39052C8.14048 8.64057 8 8.97971 8 9.33333V18.6667C8 19.0203 8.14048 19.3594 8.39052 19.6095C8.64057 19.8595 8.97971 20 9.33333 20H18.6667C19.0203 20 19.3594 19.8595 19.6095 19.6095C19.8595 19.3594 20 19.0203 20 18.6667V14" stroke="#E6C157" stroke-width="1.33333" stroke-linecap="round" stroke-linejoin="round"/>
<path d="M18.2504 7.75015C18.5156 7.48493 18.8753 7.33594 19.2504 7.33594C19.6255 7.33594 19.9852 7.48493 20.2504 7.75015C20.5156 8.01537 20.6646 8.37508 20.6646 8.75015C20.6646 9.12522 20.5156 9.48493 20.2504 9.75015L14.2417 15.7595C14.0834 15.9176 13.8879 16.0334 13.6731 16.0962L11.7577 16.6562C11.7004 16.6729 11.6395 16.6739 11.5817 16.6591C11.5238 16.6442 11.4709 16.6141 11.4287 16.5719C11.3864 16.5296 11.3563 16.4768 11.3415 16.4189C11.3267 16.361 11.3277 16.3002 11.3444 16.2428L11.9044 14.3275C11.9674 14.1129 12.0834 13.9175 12.2417 13.7595L18.2504 7.75015Z" stroke="#E6C157" stroke-width="1.33333" stroke-linecap="round" stroke-linejoin="round"/>
</svg>
